<svg width="800" height="800" viewBox="0 0 800 800" fill="none" xmlns="http://www.w3.org/2000/svg">
<path fill-rule="evenodd" clip-rule="evenodd" d="M400.5 493.837C452.049 493.837 493.837 452.049 493.837 400.5C493.837 348.951 452.049 307.163 400.5 307.163C348.951 307.163 307.163 348.951 307.163 400.5C307.163 452.049 348.951 493.837 400.5 493.837ZM400.5 495C452.691 495 495 452.691 495 400.5C495 348.309 452.691 306 400.5 306C348.309 306 306 348.309 306 400.5C306 452.691 348.309 495 400.5 495Z" fill="black"/>
<path d="M336.528 393.834H338.526L342.27 404.202H342.306L346.194 393.834H348.084L343.062 406.578H341.442L336.528 393.834Z" fill="black"/>
<path d="M349.612 393.834H351.34V406.578H349.612V393.834Z" fill="black"/>
<path d="M354.622 393.834H362.848V395.454H356.35V399.252H362.398V400.872H356.35V404.958H363.172V406.578H354.622V393.834Z" fill="black"/>
<path d="M364.006 393.834H365.806L368.614 404.022H368.65L371.656 393.834H373.636L376.642 404.022H376.678L379.486 393.834H381.286L377.578 406.578H375.76L372.664 396.174H372.628L369.55 406.578H367.732L364.006 393.834Z" fill="black"/>
<path d="M387.95 393.834H392.432C393.248 393.834 393.92 393.948 394.448 394.176C394.976 394.392 395.39 394.674 395.69 395.022C396.002 395.358 396.218 395.742 396.338 396.174C396.458 396.594 396.518 397.002 396.518 397.398C396.518 397.794 396.458 398.208 396.338 398.64C396.218 399.06 396.002 399.444 395.69 399.792C395.39 400.128 394.976 400.41 394.448 400.638C393.92 400.854 393.248 400.962 392.432 400.962H389.678V406.578H387.95V393.834ZM389.678 399.45H391.946C392.282 399.45 392.612 399.426 392.936 399.378C393.272 399.318 393.566 399.216 393.818 399.072C394.082 398.928 394.292 398.724 394.448 398.46C394.604 398.184 394.682 397.83 394.682 397.398C394.682 396.966 394.604 396.618 394.448 396.354C394.292 396.078 394.082 395.868 393.818 395.724C393.566 395.58 393.272 395.484 392.936 395.436C392.612 395.376 392.282 395.346 391.946 395.346H389.678V399.45Z" fill="black"/>
<path d="M398.62 393.834H403.102C403.918 393.834 404.59 393.948 405.118 394.176C405.646 394.392 406.06 394.674 406.36 395.022C406.672 395.358 406.888 395.742 407.008 396.174C407.128 396.594 407.188 397.002 407.188 397.398C407.188 397.806 407.116 398.202 406.972 398.586C406.828 398.958 406.618 399.3 406.342 399.612C406.078 399.912 405.748 400.17 405.352 400.386C404.968 400.59 404.536 400.716 404.056 400.764L407.674 406.578H405.514L402.274 400.962H400.348V406.578H398.62V393.834ZM400.348 399.45H402.616C402.952 399.45 403.282 399.426 403.606 399.378C403.942 399.318 404.236 399.216 404.488 399.072C404.752 398.928 404.962 398.724 405.118 398.46C405.274 398.184 405.352 397.83 405.352 397.398C405.352 396.966 405.274 396.618 405.118 396.354C404.962 396.078 404.752 395.868 404.488 395.724C404.236 395.58 403.942 395.484 403.606 395.436C403.282 395.376 402.952 395.346 402.616 395.346H400.348V399.45Z" fill="black"/>
<path d="M415.474 406.902C414.502 406.902 413.608 406.734 412.792 406.398C411.976 406.05 411.274 405.576 410.686 404.976C410.11 404.376 409.654 403.668 409.318 402.852C408.994 402.036 408.832 401.154 408.832 400.206C408.832 399.258 408.994 398.376 409.318 397.56C409.654 396.744 410.11 396.036 410.686 395.436C411.274 394.836 411.976 394.368 412.792 394.032C413.608 393.684 414.502 393.51 415.474 393.51C416.446 393.51 417.34 393.684 418.156 394.032C418.972 394.368 419.668 394.836 420.244 395.436C420.832 396.036 421.288 396.744 421.612 397.56C421.948 398.376 422.116 399.258 422.116 400.206C422.116 401.154 421.948 402.036 421.612 402.852C421.288 403.668 420.832 404.376 420.244 404.976C419.668 405.576 418.972 406.05 418.156 406.398C417.34 406.734 416.446 406.902 415.474 406.902ZM415.474 405.282C416.206 405.282 416.866 405.15 417.454 404.886C418.042 404.61 418.546 404.244 418.966 403.788C419.386 403.332 419.71 402.798 419.938 402.186C420.166 401.562 420.28 400.902 420.28 400.206C420.28 399.51 420.166 398.856 419.938 398.244C419.71 397.62 419.386 397.08 418.966 396.624C418.546 396.168 418.042 395.808 417.454 395.544C416.866 395.268 416.206 395.13 415.474 395.13C414.742 395.13 414.082 395.268 413.494 395.544C412.906 395.808 412.402 396.168 411.982 396.624C411.562 397.08 411.238 397.62 411.01 398.244C410.782 398.856 410.668 399.51 410.668 400.206C410.668 400.902 410.782 401.562 411.01 402.186C411.238 402.798 411.562 403.332 411.982 403.788C412.402 404.244 412.906 404.61 413.494 404.886C414.082 405.15 414.742 405.282 415.474 405.282Z" fill="black"/>
<path d="M428.578 393.834H430.306V402.942C430.306 403.746 430.18 404.406 429.928 404.922C429.676 405.426 429.358 405.828 428.974 406.128C428.602 406.416 428.2 406.614 427.768 406.722C427.336 406.842 426.94 406.902 426.58 406.902C425.68 406.902 424.918 406.674 424.294 406.218C423.682 405.75 423.292 405.048 423.124 404.112L424.816 403.734C424.912 404.214 425.11 404.592 425.41 404.868C425.71 405.144 426.1 405.282 426.58 405.282C427.012 405.282 427.354 405.198 427.606 405.03C427.87 404.862 428.074 404.646 428.218 404.382C428.362 404.106 428.458 403.794 428.506 403.446C428.554 403.098 428.578 402.744 428.578 402.384V393.834Z" fill="black"/>
<path d="M433.284 393.834H441.51V395.454H435.012V399.252H441.06V400.872H435.012V404.958H441.834V406.578H433.284V393.834Z" fill="black"/>
<path d="M453.162 396.588C452.802 396.12 452.346 395.76 451.794 395.508C451.242 395.256 450.672 395.13 450.084 395.13C449.364 395.13 448.71 395.268 448.122 395.544C447.546 395.808 447.048 396.174 446.628 396.642C446.22 397.11 445.902 397.662 445.674 398.298C445.446 398.922 445.332 399.594 445.332 400.314C445.332 400.986 445.44 401.622 445.656 402.222C445.872 402.822 446.184 403.35 446.592 403.806C447 404.262 447.498 404.622 448.086 404.886C448.674 405.15 449.34 405.282 450.084 405.282C450.816 405.282 451.458 405.132 452.01 404.832C452.562 404.532 453.03 404.112 453.414 403.572L454.872 404.67C454.776 404.802 454.608 404.994 454.368 405.246C454.128 405.486 453.81 405.732 453.414 405.984C453.018 406.224 452.538 406.434 451.974 406.614C451.422 406.806 450.78 406.902 450.048 406.902C449.04 406.902 448.128 406.71 447.312 406.326C446.508 405.942 445.818 405.438 445.242 404.814C444.678 404.19 444.246 403.488 443.946 402.708C443.646 401.916 443.496 401.118 443.496 400.314C443.496 399.33 443.658 398.424 443.982 397.596C444.306 396.756 444.756 396.036 445.332 395.436C445.92 394.824 446.622 394.35 447.438 394.014C448.254 393.678 449.154 393.51 450.138 393.51C450.978 393.51 451.8 393.672 452.604 393.996C453.42 394.32 454.086 394.818 454.602 395.49L453.162 396.588Z" fill="black"/>
<path d="M459.625 395.454H455.521V393.834H465.457V395.454H461.353V406.578H459.625V395.454Z" fill="black"/>
</svg>
